<?xml version="1.0" encoding="UTF-8" standalone="no"?>
<svg
   viewBox="0.0 0.0 698.0 582.5"
   width="346.274924279844"
   height="288.78787630369806"
   version="1.1"
   id="svg182"
   sodipodi:docname="Midjourney_logo.svg"
   inkscape:version="1.2.2 (b0a8486541, 2022-12-01)"
   xmlns:inkscape="http://www.inkscape.org/namespaces/inkscape"
   xmlns:sodipodi="http://sodipodi.sourceforge.net/DTD/sodipodi-0.dtd"
   xmlns="http://www.w3.org/2000/svg"
   xmlns:svg="http://www.w3.org/2000/svg"
   xmlns:rdf="http://www.w3.org/1999/02/22-rdf-syntax-ns#"
   xmlns:cc="http://creativecommons.org/ns#"
   xmlns:dc="http://purl.org/dc/elements/1.1/">
  <defs
     id="defs186" />
  <sodipodi:namedview
     id="namedview184"
     pagecolor="#ffffff"
     bordercolor="#000000"
     borderopacity="0.25"
     inkscape:showpageshadow="2"
     inkscape:pageopacity="0.0"
     inkscape:pagecheckerboard="0"
     inkscape:deskcolor="#d1d1d1"
     showgrid="false"
     inkscape:zoom="3.1680029"
     inkscape:cx="173.13747"
     inkscape:cy="144.25492"
     inkscape:window-width="1872"
     inkscape:window-height="1163"
     inkscape:window-x="0"
     inkscape:window-y="0"
     inkscape:window-maximized="1"
     inkscape:current-layer="svg182" />
  <title
     id="title176">Midjourney logo</title>
  <path
     id="waves"
     d="M-43,680c20,0,50-42,85-48,20,0,35,42,85,48,35,0,50-42,85-42s50,42,85,42,50-42,85-42,50,42,85,42,50-42,85-42,50,42,85,42"
     transform="translate(52 -106.5)"
     style="fill:none;stroke:#ffffff;stroke-linecap:round;stroke-linejoin:round;stroke-width:18px;stroke-opacity:1" />
  <path
     id="hull"
     d="M25.4,638.2,2.5,594.4l590-38c-46.4,42.2-106,76.4-166.3,104.4"
     transform="translate(52 -106.5)"
     style="fill:none;stroke:#ffffff;stroke-linecap:round;stroke-linejoin:round;stroke-width:18px;stroke-opacity:1" />
  <path
     id="front_sail"
     d="M237.4,186.4c100.4,30.7,240.8,179,288.6,338.4-26.2-10.3-45.8-20.8-82.6-11.4C407.8,383.9,344.1,260.2,237.4,186.4Z"
     transform="translate(52 -106.5)"
     style="fill:none;stroke:#ffffff;stroke-linecap:round;stroke-linejoin:round;stroke-width:18px;stroke-opacity:1" />
  <path
     id="rear_sail"
     d="M50.7,115.5c128.6,55,305,208.1,337.4,412-148.3-59.8-261.2-27.9-339.8,20.6C168.2,395.7,114.4,222.4,50.7,115.5Z"
     transform="translate(52 -106.5)"
     style="fill:none;stroke:#ffffff;stroke-linecap:round;stroke-linejoin:round;stroke-width:18px;stroke-opacity:1" />
  <metadata
     id="metadata823">
    <rdf:RDF>
      <cc:Work
         rdf:about="">
        <dc:title>Midjourney logo</dc:title>
      </cc:Work>
    </rdf:RDF>
  </metadata>
</svg>
